<svg width="17" height="17" viewBox="0 0 17 17" fill="none" xmlns="http://www.w3.org/2000/svg">
<path d="M5.95398 3.64779H7.35398C7.5308 3.64779 7.70036 3.57755 7.82539 3.45252C7.95041 3.3275 8.02065 3.15793 8.02065 2.98112C8.02065 2.80431 7.95041 2.63474 7.82539 2.50972C7.70036 2.38469 7.5308 2.31445 7.35398 2.31445H5.95398C5.77717 2.31445 5.6076 2.38469 5.48258 2.50972C5.35756 2.63474 5.28732 2.80431 5.28732 2.98112C5.28732 3.15793 5.35756 3.3275 5.48258 3.45252C5.6076 3.57755 5.77717 3.64779 5.95398 3.64779V3.64779ZM2.50065 8.50112C2.67746 8.50112 2.84703 8.43088 2.97206 8.30586C3.09708 8.18083 3.16732 8.01126 3.16732 7.83445V6.43445C3.16732 6.25764 3.09708 6.08807 2.97206 5.96305C2.84703 5.83802 2.67746 5.76779 2.50065 5.76779C2.32384 5.76779 2.15427 5.83802 2.02925 5.96305C1.90422 6.08807 1.83398 6.25764 1.83398 6.43445V7.83445C1.83398 8.01126 1.90422 8.18083 2.02925 8.30586C2.15427 8.43088 2.32384 8.50112 2.50065 8.50112ZM10.1407 3.64779C10.1407 3.82458 10.2109 3.99412 10.3359 4.11913C10.461 4.24413 10.6305 4.31435 10.8073 4.31435C10.9841 4.31435 11.1537 4.24413 11.2787 4.11913C11.4037 3.99412 11.474 3.82458 11.474 3.64779V2.98112C11.474 2.80431 11.4037 2.63474 11.2787 2.50972C11.1537 2.38469 10.9841 2.31445 10.8073 2.31445H10.1407C9.96384 2.31445 9.79427 2.38469 9.66925 2.50972C9.54422 2.63474 9.47398 2.80431 9.47398 2.98112C9.47398 3.15793 9.54422 3.3275 9.66925 3.45252C9.79427 3.57755 9.96384 3.64779 10.1407 3.64779V3.64779ZM14.5007 6.00779H11.474C11.474 5.83099 11.4037 5.66145 11.2787 5.53645C11.1537 5.41145 10.9841 5.34122 10.8073 5.34122C10.6305 5.34122 10.461 5.41145 10.3359 5.53645C10.2109 5.66145 10.1407 5.83099 10.1407 6.00779H6.19398C6.01717 6.00779 5.8476 6.07802 5.72258 6.20305C5.59756 6.32807 5.52732 6.49764 5.52732 6.67445V10.6211C5.35052 10.6211 5.18098 10.6914 5.05598 10.8164C4.93098 10.9414 4.86075 11.111 4.86075 11.2878C4.86075 11.4646 4.93098 11.6341 5.05598 11.7592C5.18098 11.8842 5.35052 11.9544 5.52732 11.9545V14.9811C5.52732 15.1579 5.59756 15.3275 5.72258 15.4525C5.8476 15.5775 6.01717 15.6478 6.19398 15.6478H14.5007C14.6775 15.6478 14.847 15.5775 14.9721 15.4525C15.0971 15.3275 15.1673 15.1579 15.1673 14.9811V6.67445C15.1673 6.49764 15.0971 6.32807 14.9721 6.20305C14.847 6.07802 14.6775 6.00779 14.5007 6.00779ZM13.834 14.3145H6.86065V7.34112H13.834V14.3145ZM3.16732 2.31445H2.50065C2.32384 2.31445 2.15427 2.38469 2.02925 2.50972C1.90422 2.63474 1.83398 2.80431 1.83398 2.98112V3.64779C1.83398 3.8246 1.90422 3.99417 2.02925 4.11919C2.15427 4.24422 2.32384 4.31445 2.50065 4.31445C2.67746 4.31445 2.84703 4.24422 2.97206 4.11919C3.09708 3.99417 3.16732 3.8246 3.16732 3.64779C3.34413 3.64779 3.5137 3.57755 3.63872 3.45252C3.76375 3.3275 3.83398 3.15793 3.83398 2.98112C3.83398 2.80431 3.76375 2.63474 3.63872 2.50972C3.5137 2.38469 3.34413 2.31445 3.16732 2.31445V2.31445ZM3.16732 10.6211C3.16732 10.4443 3.09708 10.2747 2.97206 10.1497C2.84703 10.0247 2.67746 9.95445 2.50065 9.95445C2.32384 9.95445 2.15427 10.0247 2.02925 10.1497C1.90422 10.2747 1.83398 10.4443 1.83398 10.6211V11.2878C1.83398 11.4646 1.90422 11.6342 2.02925 11.7592C2.15427 11.8842 2.32384 11.9545 2.50065 11.9545H3.16732C3.34411 11.9544 3.51365 11.8842 3.63866 11.7592C3.76366 11.6341 3.83388 11.4646 3.83388 11.2878C3.83388 11.111 3.76366 10.9414 3.63866 10.8164C3.51365 10.6914 3.34411 10.6211 3.16732 10.6211V10.6211Z" fill="white"/>
</svg>
