<svg width="33" height="25" viewBox="0 0 33 25" fill="none" xmlns="http://www.w3.org/2000/svg">
<path d="M0.898438 13.4527C2.08663 14.5926 3.34449 15.6576 4.66474 16.6415L4.86561 15.9636C4.88433 15.7631 4.88433 15.5614 4.86561 15.361C4.88125 15.1308 4.95001 14.9073 5.06648 14.7081C5.26006 14.2328 5.55981 13.8081 5.94278 13.4665C6.32576 13.1249 6.78181 12.8754 7.27604 12.7371C7.99337 12.6133 8.72992 12.6626 9.42434 12.8809C10.1188 13.0993 10.751 13.4804 11.2683 13.9925C11.2683 13.9925 11.3436 13.9925 11.2683 14.1055L10.9796 14.4445L11.0549 14.57C11.1033 14.6187 11.1379 14.6794 11.1553 14.7458C11.1887 14.7615 11.2252 14.7696 11.262 14.7696C11.2989 14.7696 11.3354 14.7615 11.3688 14.7458C11.4943 14.7458 11.5696 14.6077 11.7203 14.7458C11.8709 14.8839 18.3113 20.0563 18.3113 20.0563L18.4368 20.1567C18.4368 20.1567 18.5122 20.1567 18.4368 20.2446C18.3615 20.3325 18.4368 20.3576 18.4368 20.3827C18.5273 20.4153 18.612 20.4619 18.6879 20.5208C18.6879 20.5208 18.6879 20.6589 18.8135 20.6212C18.939 20.5836 18.8888 20.5082 19.0018 20.4329L19.1775 20.3074L21.4624 22.1277C21.5783 22.188 21.7089 22.2141 21.8391 22.2031C22.0399 22.2031 22.0776 22.0399 22.0776 22.0399L23.333 20.6589L23.4586 20.5333L23.3707 20.4204C23.2828 20.3074 20.91 18.4744 20.91 18.4744C20.91 18.4744 20.8473 18.4744 20.9728 18.2736L21.2741 17.9597C21.2741 17.9597 21.362 17.8969 21.2741 17.7714C21.1881 17.7032 21.1083 17.6276 21.0356 17.5454C21.0101 17.5332 20.9822 17.5268 20.954 17.5268C20.9257 17.5268 20.8978 17.5332 20.8724 17.5454C20.816 17.5741 20.7536 17.589 20.6903 17.589C20.6271 17.589 20.5647 17.5741 20.5083 17.5454L13.8043 12.4358C13.8043 12.4358 13.6536 12.3479 13.6411 12.2851C13.657 12.2491 13.6832 12.2185 13.7164 12.1973V12.0843L13.4528 11.8081C13.4435 11.7951 13.4312 11.7846 13.417 11.7773C13.4028 11.77 13.3871 11.7662 13.3712 11.7662C13.3552 11.7662 13.3395 11.77 13.3253 11.7773C13.3111 11.7846 13.2989 11.7951 13.2896 11.8081C13.2017 11.896 12.8251 12.147 12.8251 12.147C12.8251 12.147 12.8251 12.2224 12.6493 12.147C12.1223 11.7794 11.6343 11.3587 11.193 10.8916C10.9296 10.5991 10.744 10.2451 10.6532 9.86216C10.6152 9.3854 10.6236 8.90609 10.6783 8.43096C10.8827 7.59868 11.3134 6.83919 11.9227 6.23652C12.5321 5.63384 13.2962 5.21149 14.1307 5.01618C14.1307 5.01618 14.319 5.01618 14.2186 4.86553C12.7802 4.56487 11.2888 4.63779 9.8866 5.07735C8.48442 5.5169 7.21826 6.30843 6.20892 7.3764C6.21379 7.39252 6.22186 7.4075 6.23265 7.42044C6.24343 7.43338 6.25671 7.44402 6.27169 7.45173L7.52713 8.61928C7.52713 8.61928 7.81587 9.14656 7.52713 9.49808C7.39802 9.66278 7.22284 9.78535 7.02387 9.85018C6.8249 9.91501 6.61114 9.91918 6.40979 9.86216C5.9431 9.56479 5.50216 9.22883 5.09158 8.85781C5.06807 8.84566 5.04211 8.83897 5.01564 8.83825C4.98918 8.83753 4.9629 8.8428 4.93875 8.85367C4.91461 8.86453 4.89324 8.88071 4.87622 8.90099C4.85921 8.92127 4.847 8.94514 4.8405 8.9708C4.21295 10.3079 3.3153 11.5005 2.20409 12.4735L0.898438 13.4527Z" fill="white"/>
<g clip-path="url(#clip0)">
<path d="M32.3984 13.4527C31.2102 14.5926 29.9524 15.6576 28.6321 16.6415L28.4313 15.9636C28.4125 15.7631 28.4125 15.5614 28.4313 15.361C28.4156 15.1308 28.3469 14.9073 28.2304 14.7081C28.0368 14.2328 27.7371 13.8081 27.3541 13.4665C26.9711 13.1249 26.5151 12.8754 26.0208 12.7371C25.3035 12.6133 24.567 12.6626 23.8725 12.8809C23.1781 13.0993 22.5459 13.4804 22.0286 13.9925C22.0286 13.9925 21.9532 13.9925 22.0286 14.1055L22.3173 14.4445L22.242 14.57C22.1936 14.6187 22.1589 14.6794 22.1415 14.7458C22.1082 14.7615 22.0717 14.7696 22.0348 14.7696C21.9979 14.7696 21.9615 14.7615 21.9281 14.7458C21.8026 14.7458 21.7273 14.6077 21.5766 14.7458C21.426 14.8839 14.9856 20.0563 14.9856 20.0563L14.86 20.1567C14.86 20.1567 14.7847 20.1567 14.86 20.2446C14.9354 20.3325 14.86 20.3576 14.86 20.3827C14.7696 20.4153 14.6849 20.4619 14.6089 20.5208C14.6089 20.5208 14.6089 20.6589 14.4834 20.6212C14.3579 20.5836 14.4081 20.5082 14.2951 20.4329L14.1193 20.3074L11.8344 22.1277C11.7185 22.188 11.5879 22.2141 11.4578 22.2031C11.2569 22.2031 11.2193 22.0399 11.2193 22.0399L9.96384 20.6589L9.8383 20.5333L9.92618 20.4204C10.0141 20.3074 12.3868 18.4744 12.3868 18.4744C12.3868 18.4744 12.4496 18.4744 12.3241 18.2736L12.0228 17.9597C12.0228 17.9597 11.9349 17.8969 12.0228 17.7714C12.1087 17.7032 12.1886 17.6276 12.2613 17.5454C12.2867 17.5332 12.3146 17.5268 12.3429 17.5268C12.3711 17.5268 12.399 17.5332 12.4245 17.5454C12.4809 17.5741 12.5433 17.589 12.6065 17.589C12.6698 17.589 12.7322 17.5741 12.7886 17.5454L19.4926 12.4358C19.4926 12.4358 19.6432 12.3479 19.6558 12.2851C19.6398 12.2491 19.6137 12.2185 19.5805 12.1973V12.0843L19.8441 11.8081C19.8534 11.7951 19.8657 11.7846 19.8798 11.7773C19.894 11.77 19.9098 11.7662 19.9257 11.7662C19.9417 11.7662 19.9574 11.77 19.9716 11.7773C19.9858 11.7846 19.998 11.7951 20.0073 11.8081C20.0952 11.896 20.4718 12.147 20.4718 12.147C20.4718 12.147 20.4718 12.2224 20.6476 12.147C21.1746 11.7794 21.6626 11.3587 22.1039 10.8916C22.3673 10.5991 22.5529 10.2451 22.6437 9.86216C22.6817 9.3854 22.6732 8.90609 22.6186 8.43096C22.4142 7.59868 21.9835 6.83919 21.3741 6.23652C20.7648 5.63384 20.0006 5.21149 19.1662 5.01618C19.1662 5.01618 18.9779 5.01618 19.0783 4.86553C20.5167 4.56487 22.0081 4.63779 23.4103 5.07735C24.8125 5.5169 26.0786 6.30843 27.088 7.3764C27.0831 7.39252 27.075 7.4075 27.0642 7.42044C27.0534 7.43338 27.0402 7.44402 27.0252 7.45173L25.7697 8.61928C25.7697 8.61928 25.481 9.14656 25.7697 9.49808C25.8989 9.66278 26.074 9.78535 26.273 9.85018C26.472 9.91501 26.6857 9.91918 26.8871 9.86216C27.3538 9.56479 27.7947 9.22883 28.2053 8.85781C28.2288 8.84566 28.2548 8.83897 28.2812 8.83825C28.3077 8.83753 28.334 8.8428 28.3581 8.85367C28.3823 8.86453 28.4036 8.88071 28.4207 8.90099C28.4377 8.92127 28.4499 8.94514 28.4564 8.9708C29.0839 10.3079 29.9816 11.5005 31.0928 12.4735L32.3984 13.4527Z" fill="white"/>
</g>
<defs>
<clipPath id="clip0">
<rect width="24" height="24" fill="white" transform="matrix(-1 0 0 1 32.1016 0.949219)"/>
</clipPath>
</defs>
</svg>
