<svg width="6" height="9" viewBox="0 0 6 9" fill="none" xmlns="http://www.w3.org/2000/svg">
<path d="M0.900798 0.383252C0.711192 0.584011 0.720233 0.900465 0.920992 1.09007L4.24199 4.22657L0.920992 7.36307C0.720233 7.55268 0.711192 7.86913 0.900798 8.06989C1.0904 8.27065 1.40686 8.27969 1.60762 8.09008L4.92901 4.95322C5.34736 4.5581 5.34593 3.89369 4.92862 3.49956L1.60762 0.363057C1.40686 0.173451 1.0904 0.182493 0.900798 0.383252ZM4.24199 4.22657L4.24258 4.22717C4.2427 4.22734 4.24238 4.22696 4.24199 4.22657C4.24182 4.22701 4.24199 4.22705 4.24199 4.22657C4.24199 4.22642 4.242 4.22665 4.24199 4.22657Z" fill="#97A0B9"/>
</svg>
